<?xml version="1.0" encoding="UTF-8"?>
<!DOCTYPE svg  PUBLIC '-//W3C//DTD SVG 1.1//EN'  'http://www.w3.org/Graphics/SVG/1.1/DTD/svg11.dtd'>
<svg width="48px" height="48px" version="1.1" viewBox="0 0 461.26 461.26" xml:space="preserve" xmlns="http://www.w3.org/2000/svg">
<path d="m461.26 246.95v-9h-40.094c-10.627-19.896-24.431-38.197-41.122-54.211-40.377-38.736-93.439-60.069-149.41-60.069-82.258 0-154.16 46.048-190.56 114.28h-40.07v9h35.538c-1.538 3.24-3.002 6.523-4.38 9.851h-31.158v9h27.67c-6.74 18.599-10.997 38.415-12.38 59.063-3.1-1.451-6.058-3.324-8.787-5.625l-5.803 6.881c17.178 14.486 41.709 15.243 59.653 2.267 16.957 12.262 39.795 12.262 56.752 0 16.958 12.263 39.795 12.262 56.751 0 16.958 12.263 39.796 12.262 56.752 0 16.957 12.262 39.795 12.262 56.752 0 16.957 12.262 39.795 12.262 56.752 0 8.479 6.131 18.428 9.196 28.376 9.196s19.897-3.065 28.376-9.195c17.943 12.974 42.474 12.217 59.653-2.268l-5.803-6.881c-2.713 2.288-5.651 4.151-8.731 5.598-1.368-20.381-5.581-40.216-12.406-59.036h27.681v-9h-31.178c-1.376-3.32-2.833-6.604-4.375-9.851h35.555zm-60.395 69.842-2.901 2.446c-14.76 12.449-36.189 12.449-50.949 0l-2.901-2.446-2.901 2.446c-14.76 12.449-36.189 12.449-50.949 0l-2.901-2.446-2.901 2.446c-14.76 12.449-36.189 12.449-50.949 0l-2.901-2.446-2.901 2.446c-14.759 12.449-36.187 12.449-50.949 0l-2.901-2.446-2.901 2.446c-14.759 12.449-36.188 12.449-50.948 0l-2.901-2.446-2.901 2.446c-14.76 12.449-36.189 12.449-50.949 0l-2.901-2.446-2.901 2.446c-1.905 1.606-3.922 3.001-6.02 4.193 1.779-20.114 6.877-39.546 15.001-57.631h328.38c8.127 18.091 13.23 37.53 15.008 57.651-2.112-1.196-4.142-2.598-6.058-4.214l-2.907-2.445zm-45.166-106.59c8.819 8.531 16.659 17.831 23.464 27.751h-23.464v-27.751zm-9 27.751h-21.14v-51.302c7.367 4.589 14.431 9.735 21.14 15.412v35.89zm-30.139 0h-21.14v-66.335c7.245 2.794 14.306 6.055 21.14 9.779v56.556zm-30.14 0h-21.147v-75.018c7.175 1.397 14.234 3.231 21.147 5.48v69.538zm-30.148 0h-21.142v-78.293c7.12 0.175 14.177 0.766 21.142 1.759v76.534zm-30.141 0h-21.142v-76.535c6.964-0.992 14.021-1.584 21.142-1.758v78.293zm-30.142 0h-21.14v-69.547c6.91-2.247 13.967-4.079 21.14-5.475v75.022zm-30.139 0h-21.14v-56.565c6.834-3.723 13.895-6.986 21.14-9.78v66.345zm-30.14 0h-21.15v-35.895c6.712-5.681 13.78-10.829 21.15-15.42v51.315zm-30.15 0h-23.466c6.805-9.919 14.643-19.224 23.466-27.758v27.758zm-29.267 9h308.66c1.941 3.228 3.775 6.514 5.505 9.851h-319.66c1.729-3.336 3.555-6.624 5.496-9.851zm342.85 80.308c-3.023-47.211-23.422-91.136-57.718-124.05-35.341-33.923-81.791-52.604-130.79-52.604-49.172 0-95.738 18.793-131.12 52.918-34.113 32.901-54.378 76.679-57.393 123.73-5.884 1.566-12.047 1.737-17.995 0.527 6.12-109.46 96.686-195.11 206.51-195.11 53.641 0 104.49 20.443 143.18 57.563 37.976 36.433 60.394 85.194 63.322 137.54-5.947 1.216-12.11 1.051-17.995-0.51z" fill="currentColor"/>
</svg>
