<?xml version="1.0" encoding="UTF-8"?>
<svg version="1.1" viewBox="0 0 24 40.344" xmlns="http://www.w3.org/2000/svg">
<path d="m13.541 0c-1.8976 0-3.436 1.5383-3.436 3.436 0 1.8976 1.5383 3.436 3.436 3.436 1.8976 0 3.436-1.5383 3.436-3.436 0-1.8976-1.5383-3.436-3.436-3.436zm-0.90713 7.5009c-1.4919-0.024091-2.2386 0.79774-2.9089 1.256 0 0-5.7151 4.1749-6.2806 5.0246-0.56894 0.85485-1.5867 7.2722-1.5867 7.2722-0.15953 0.7312 0.12597 1.3193 0.99156 1.5207 1.0591 0.24639 1.8184-0.41312 1.9173-0.92557 0 0 0.65257-5.0689 1.1239-5.8178 0.54875-0.87201 2.4385-1.8994 2.4385-1.8994l5.5e-4 -0.0011s-2.8081 14.58-3.4126 15.567c-0.51707 0.84369-4.5519 7.4641-4.5519 7.4641-0.86138 1.4124-0.0451 2.4221 0.86753 2.949 0.7769 0.44849 2.4468 0.33752 2.999-0.60433 0 0 4.4766-6.9665 4.965-8.4689 0.33815-1.0402 1.1239-5.3551 1.1239-5.3551s4.35 4.4862 4.8264 5.289c0.60047 1.0119 1.7188 8.0659 1.7188 8.0659 0.26747 1.2551 1.4643 1.6643 2.7105 1.4543 0.98416-0.16575 2.0135-0.8316 1.7851-2.0495 0 0-0.9947-8.1782-1.7851-9.5204-0.94324-1.6014-6.0162-7.0741-6.0162-7.0741l1.4545-6.479s0.93353 1.8923 1.5867 2.7105c0.74282 0.93047 5.421 3.6363 5.421 3.6363 0.42912 0.28782 1.4008 0.12913 1.7851-0.59511 0.30851-0.58131 0.29404-1.5228-0.39662-1.9833 0 0-3.8555-2.4205-4.7602-3.1735-1.0061-0.83579-3.0413-6.4114-3.0413-6.4114-0.63131-0.86877-1.4951-1.8273-2.9752-1.8511z" fill="currentColor"/>
</svg>
