<?xml version="1.0"?>
<svg xmlns="http://www.w3.org/2000/svg" xmlns:xlink="http://www.w3.org/1999/xlink" fill="currentColor" viewBox="-4.5 -4.5 37 37" shape-rendering="crispEdges">
<defs>
<rect id="b" x="-0.500000" y="-0.500000" width="1.000000" height="1.000000" rx="0.500000" />
<path id="f" d="" visibility="hidden" />
<g id="fc"><rect x="-3" y="-3" width="6" height="6" rx="0.750000" stroke="currentColor" stroke-width="1" fill="none" /><rect x="-1.5" y="-1.5" width="3" height="3" rx="0.375000" /></g>
<use id="a" xlink:href="#b" />
<path id="ac" d="" visibility="hidden" />
</defs>
<use x="0" y="0" xlink:href="#f" />
<use x="1" y="0" xlink:href="#f" />
<use x="2" y="0" xlink:href="#f" />
<use x="3" y="0" xlink:href="#f" />
<use x="4" y="0" xlink:href="#f" />
<use x="5" y="0" xlink:href="#f" />
<use x="6" y="0" xlink:href="#f" />
<use x="10" y="0" xlink:href="#b" />
<use x="13" y="0" xlink:href="#b" />
<use x="14" y="0" xlink:href="#b" />
<use x="15" y="0" xlink:href="#b" />
<use x="18" y="0" xlink:href="#b" />
<use x="19" y="0" xlink:href="#b" />
<use x="22" y="0" xlink:href="#f" />
<use x="23" y="0" xlink:href="#f" />
<use x="24" y="0" xlink:href="#f" />
<use x="25" y="0" xlink:href="#f" />
<use x="26" y="0" xlink:href="#f" />
<use x="27" y="0" xlink:href="#f" />
<use x="28" y="0" xlink:href="#f" />
<use x="0" y="1" xlink:href="#f" />
<use x="6" y="1" xlink:href="#f" />
<use x="9" y="1" xlink:href="#b" />
<use x="13" y="1" xlink:href="#b" />
<use x="15" y="1" xlink:href="#b" />
<use x="18" y="1" xlink:href="#b" />
<use x="19" y="1" xlink:href="#b" />
<use x="22" y="1" xlink:href="#f" />
<use x="28" y="1" xlink:href="#f" />
<use x="0" y="2" xlink:href="#f" />
<use x="2" y="2" xlink:href="#f" />
<use x="3" y="2" xlink:href="#f" />
<use x="4" y="2" xlink:href="#f" />
<use x="6" y="2" xlink:href="#f" />
<use x="8" y="2" xlink:href="#b" />
<use x="11" y="2" xlink:href="#b" />
<use x="15" y="2" xlink:href="#b" />
<use x="19" y="2" xlink:href="#b" />
<use x="22" y="2" xlink:href="#f" />
<use x="24" y="2" xlink:href="#f" />
<use x="25" y="2" xlink:href="#f" />
<use x="26" y="2" xlink:href="#f" />
<use x="28" y="2" xlink:href="#f" />
<use x="0" y="3" xlink:href="#f" />
<use x="2" y="3" xlink:href="#f" />
<use x="3" y="3" xlink:href="#f" />
<use x="4" y="3" xlink:href="#f" />
<use x="6" y="3" xlink:href="#f" />
<use x="9" y="3" xlink:href="#b" />
<use x="12" y="3" xlink:href="#b" />
<use x="14" y="3" xlink:href="#b" />
<use x="15" y="3" xlink:href="#b" />
<use x="16" y="3" xlink:href="#b" />
<use x="18" y="3" xlink:href="#b" />
<use x="22" y="3" xlink:href="#f" />
<use x="24" y="3" xlink:href="#f" />
<use x="25" y="3" xlink:href="#f" />
<use x="26" y="3" xlink:href="#f" />
<use x="28" y="3" xlink:href="#f" />
<use x="0" y="4" xlink:href="#f" />
<use x="2" y="4" xlink:href="#f" />
<use x="3" y="4" xlink:href="#f" />
<use x="4" y="4" xlink:href="#f" />
<use x="6" y="4" xlink:href="#f" />
<use x="9" y="4" xlink:href="#b" />
<use x="12" y="4" xlink:href="#b" />
<use x="13" y="4" xlink:href="#b" />
<use x="14" y="4" xlink:href="#b" />
<use x="15" y="4" xlink:href="#b" />
<use x="17" y="4" xlink:href="#b" />
<use x="18" y="4" xlink:href="#b" />
<use x="19" y="4" xlink:href="#b" />
<use x="20" y="4" xlink:href="#b" />
<use x="22" y="4" xlink:href="#f" />
<use x="24" y="4" xlink:href="#f" />
<use x="25" y="4" xlink:href="#f" />
<use x="26" y="4" xlink:href="#f" />
<use x="28" y="4" xlink:href="#f" />
<use x="0" y="5" xlink:href="#f" />
<use x="6" y="5" xlink:href="#f" />
<use x="10" y="5" xlink:href="#b" />
<use x="11" y="5" xlink:href="#b" />
<use x="12" y="5" xlink:href="#b" />
<use x="14" y="5" xlink:href="#b" />
<use x="15" y="5" xlink:href="#b" />
<use x="16" y="5" xlink:href="#b" />
<use x="17" y="5" xlink:href="#b" />
<use x="19" y="5" xlink:href="#b" />
<use x="22" y="5" xlink:href="#f" />
<use x="28" y="5" xlink:href="#f" />
<use x="0" y="6" xlink:href="#f" />
<use x="1" y="6" xlink:href="#f" />
<use x="2" y="6" xlink:href="#f" />
<use x="3" y="6" xlink:href="#f" />
<use x="4" y="6" xlink:href="#f" />
<use x="5" y="6" xlink:href="#f" />
<use x="6" y="6" xlink:href="#f" />
<use x="8" y="6" xlink:href="#b" />
<use x="10" y="6" xlink:href="#b" />
<use x="12" y="6" xlink:href="#b" />
<use x="14" y="6" xlink:href="#b" />
<use x="16" y="6" xlink:href="#b" />
<use x="18" y="6" xlink:href="#b" />
<use x="20" y="6" xlink:href="#b" />
<use x="22" y="6" xlink:href="#f" />
<use x="23" y="6" xlink:href="#f" />
<use x="24" y="6" xlink:href="#f" />
<use x="25" y="6" xlink:href="#f" />
<use x="26" y="6" xlink:href="#f" />
<use x="27" y="6" xlink:href="#f" />
<use x="28" y="6" xlink:href="#f" />
<use x="8" y="7" xlink:href="#b" />
<use x="11" y="7" xlink:href="#b" />
<use x="13" y="7" xlink:href="#b" />
<use x="15" y="7" xlink:href="#b" />
<use x="17" y="7" xlink:href="#b" />
<use x="18" y="7" xlink:href="#b" />
<use x="20" y="7" xlink:href="#b" />
<use x="0" y="8" xlink:href="#b" />
<use x="1" y="8" xlink:href="#b" />
<use x="2" y="8" xlink:href="#b" />
<use x="4" y="8" xlink:href="#b" />
<use x="5" y="8" xlink:href="#b" />
<use x="6" y="8" xlink:href="#b" />
<use x="7" y="8" xlink:href="#b" />
<use x="8" y="8" xlink:href="#b" />
<use x="12" y="8" xlink:href="#b" />
<use x="13" y="8" xlink:href="#b" />
<use x="16" y="8" xlink:href="#b" />
<use x="17" y="8" xlink:href="#b" />
<use x="19" y="8" xlink:href="#b" />
<use x="20" y="8" xlink:href="#b" />
<use x="21" y="8" xlink:href="#b" />
<use x="22" y="8" xlink:href="#b" />
<use x="26" y="8" xlink:href="#b" />
<use x="0" y="9" xlink:href="#b" />
<use x="1" y="9" xlink:href="#b" />
<use x="2" y="9" xlink:href="#b" />
<use x="5" y="9" xlink:href="#b" />
<use x="9" y="9" xlink:href="#b" />
<use x="11" y="9" xlink:href="#b" />
<use x="12" y="9" xlink:href="#b" />
<use x="13" y="9" xlink:href="#b" />
<use x="16" y="9" xlink:href="#b" />
<use x="17" y="9" xlink:href="#b" />
<use x="18" y="9" xlink:href="#b" />
<use x="20" y="9" xlink:href="#b" />
<use x="21" y="9" xlink:href="#b" />
<use x="22" y="9" xlink:href="#b" />
<use x="25" y="9" xlink:href="#b" />
<use x="28" y="9" xlink:href="#b" />
<use x="1" y="10" xlink:href="#b" />
<use x="3" y="10" xlink:href="#b" />
<use x="5" y="10" xlink:href="#b" />
<use x="6" y="10" xlink:href="#b" />
<use x="7" y="10" xlink:href="#b" />
<use x="8" y="10" xlink:href="#b" />
<use x="10" y="10" xlink:href="#b" />
<use x="11" y="10" xlink:href="#b" />
<use x="12" y="10" xlink:href="#b" />
<use x="13" y="10" xlink:href="#b" />
<use x="21" y="10" xlink:href="#b" />
<use x="23" y="10" xlink:href="#b" />
<use x="24" y="10" xlink:href="#b" />
<use x="26" y="10" xlink:href="#b" />
<use x="27" y="10" xlink:href="#b" />
<use x="28" y="10" xlink:href="#b" />
<use x="0" y="11" xlink:href="#b" />
<use x="1" y="11" xlink:href="#b" />
<use x="3" y="11" xlink:href="#b" />
<use x="4" y="11" xlink:href="#b" />
<use x="9" y="11" xlink:href="#b" />
<use x="10" y="11" xlink:href="#b" />
<use x="12" y="11" xlink:href="#b" />
<use x="13" y="11" xlink:href="#b" />
<use x="14" y="11" xlink:href="#b" />
<use x="15" y="11" xlink:href="#b" />
<use x="16" y="11" xlink:href="#b" />
<use x="17" y="11" xlink:href="#b" />
<use x="20" y="11" xlink:href="#b" />
<use x="21" y="11" xlink:href="#b" />
<use x="22" y="11" xlink:href="#b" />
<use x="23" y="11" xlink:href="#b" />
<use x="24" y="11" xlink:href="#b" />
<use x="27" y="11" xlink:href="#b" />
<use x="1" y="12" xlink:href="#b" />
<use x="3" y="12" xlink:href="#b" />
<use x="4" y="12" xlink:href="#b" />
<use x="5" y="12" xlink:href="#b" />
<use x="6" y="12" xlink:href="#b" />
<use x="10" y="12" xlink:href="#b" />
<use x="11" y="12" xlink:href="#b" />
<use x="16" y="12" xlink:href="#b" />
<use x="17" y="12" xlink:href="#b" />
<use x="19" y="12" xlink:href="#b" />
<use x="20" y="12" xlink:href="#b" />
<use x="21" y="12" xlink:href="#b" />
<use x="22" y="12" xlink:href="#b" />
<use x="25" y="12" xlink:href="#b" />
<use x="27" y="12" xlink:href="#b" />
<use x="28" y="12" xlink:href="#b" />
<use x="7" y="13" xlink:href="#b" />
<use x="8" y="13" xlink:href="#b" />
<use x="10" y="13" xlink:href="#b" />
<use x="11" y="13" xlink:href="#b" />
<use x="14" y="13" xlink:href="#b" />
<use x="16" y="13" xlink:href="#b" />
<use x="20" y="13" xlink:href="#b" />
<use x="21" y="13" xlink:href="#b" />
<use x="22" y="13" xlink:href="#b" />
<use x="25" y="13" xlink:href="#b" />
<use x="28" y="13" xlink:href="#b" />
<use x="0" y="14" xlink:href="#b" />
<use x="2" y="14" xlink:href="#b" />
<use x="3" y="14" xlink:href="#b" />
<use x="4" y="14" xlink:href="#b" />
<use x="5" y="14" xlink:href="#b" />
<use x="6" y="14" xlink:href="#b" />
<use x="8" y="14" xlink:href="#b" />
<use x="9" y="14" xlink:href="#b" />
<use x="10" y="14" xlink:href="#b" />
<use x="13" y="14" xlink:href="#b" />
<use x="16" y="14" xlink:href="#b" />
<use x="18" y="14" xlink:href="#b" />
<use x="20" y="14" xlink:href="#b" />
<use x="22" y="14" xlink:href="#b" />
<use x="24" y="14" xlink:href="#b" />
<use x="25" y="14" xlink:href="#b" />
<use x="27" y="14" xlink:href="#b" />
<use x="28" y="14" xlink:href="#b" />
<use x="0" y="15" xlink:href="#b" />
<use x="1" y="15" xlink:href="#b" />
<use x="5" y="15" xlink:href="#b" />
<use x="7" y="15" xlink:href="#b" />
<use x="8" y="15" xlink:href="#b" />
<use x="9" y="15" xlink:href="#b" />
<use x="11" y="15" xlink:href="#b" />
<use x="13" y="15" xlink:href="#b" />
<use x="14" y="15" xlink:href="#b" />
<use x="15" y="15" xlink:href="#b" />
<use x="16" y="15" xlink:href="#b" />
<use x="17" y="15" xlink:href="#b" />
<use x="19" y="15" xlink:href="#b" />
<use x="20" y="15" xlink:href="#b" />
<use x="24" y="15" xlink:href="#b" />
<use x="25" y="15" xlink:href="#b" />
<use x="27" y="15" xlink:href="#b" />
<use x="1" y="16" xlink:href="#b" />
<use x="3" y="16" xlink:href="#b" />
<use x="5" y="16" xlink:href="#b" />
<use x="6" y="16" xlink:href="#b" />
<use x="12" y="16" xlink:href="#b" />
<use x="13" y="16" xlink:href="#b" />
<use x="15" y="16" xlink:href="#b" />
<use x="16" y="16" xlink:href="#b" />
<use x="17" y="16" xlink:href="#b" />
<use x="21" y="16" xlink:href="#b" />
<use x="22" y="16" xlink:href="#b" />
<use x="25" y="16" xlink:href="#b" />
<use x="27" y="16" xlink:href="#b" />
<use x="28" y="16" xlink:href="#b" />
<use x="3" y="17" xlink:href="#b" />
<use x="4" y="17" xlink:href="#b" />
<use x="5" y="17" xlink:href="#b" />
<use x="8" y="17" xlink:href="#b" />
<use x="9" y="17" xlink:href="#b" />
<use x="11" y="17" xlink:href="#b" />
<use x="12" y="17" xlink:href="#b" />
<use x="16" y="17" xlink:href="#b" />
<use x="17" y="17" xlink:href="#b" />
<use x="18" y="17" xlink:href="#b" />
<use x="20" y="17" xlink:href="#b" />
<use x="21" y="17" xlink:href="#b" />
<use x="22" y="17" xlink:href="#b" />
<use x="25" y="17" xlink:href="#b" />
<use x="26" y="17" xlink:href="#b" />
<use x="28" y="17" xlink:href="#b" />
<use x="0" y="18" xlink:href="#b" />
<use x="2" y="18" xlink:href="#b" />
<use x="3" y="18" xlink:href="#b" />
<use x="5" y="18" xlink:href="#b" />
<use x="6" y="18" xlink:href="#b" />
<use x="8" y="18" xlink:href="#b" />
<use x="10" y="18" xlink:href="#b" />
<use x="11" y="18" xlink:href="#b" />
<use x="12" y="18" xlink:href="#b" />
<use x="13" y="18" xlink:href="#b" />
<use x="20" y="18" xlink:href="#b" />
<use x="23" y="18" xlink:href="#b" />
<use x="24" y="18" xlink:href="#b" />
<use x="27" y="18" xlink:href="#b" />
<use x="28" y="18" xlink:href="#b" />
<use x="1" y="19" xlink:href="#b" />
<use x="3" y="19" xlink:href="#b" />
<use x="4" y="19" xlink:href="#b" />
<use x="7" y="19" xlink:href="#b" />
<use x="12" y="19" xlink:href="#b" />
<use x="13" y="19" xlink:href="#b" />
<use x="16" y="19" xlink:href="#b" />
<use x="17" y="19" xlink:href="#b" />
<use x="18" y="19" xlink:href="#b" />
<use x="19" y="19" xlink:href="#b" />
<use x="20" y="19" xlink:href="#b" />
<use x="21" y="19" xlink:href="#b" />
<use x="22" y="19" xlink:href="#b" />
<use x="25" y="19" xlink:href="#b" />
<use x="27" y="19" xlink:href="#b" />
<use x="0" y="20" xlink:href="#b" />
<use x="2" y="20" xlink:href="#b" />
<use x="3" y="20" xlink:href="#b" />
<use x="4" y="20" xlink:href="#b" />
<use x="6" y="20" xlink:href="#b" />
<use x="7" y="20" xlink:href="#b" />
<use x="8" y="20" xlink:href="#b" />
<use x="9" y="20" xlink:href="#b" />
<use x="11" y="20" xlink:href="#b" />
<use x="12" y="20" xlink:href="#b" />
<use x="13" y="20" xlink:href="#b" />
<use x="15" y="20" xlink:href="#b" />
<use x="16" y="20" xlink:href="#b" />
<use x="17" y="20" xlink:href="#b" />
<use x="20" y="20" xlink:href="#a" />
<use x="21" y="20" xlink:href="#a" />
<use x="22" y="20" xlink:href="#a" />
<use x="23" y="20" xlink:href="#a" />
<use x="24" y="20" xlink:href="#a" />
<use x="8" y="21" xlink:href="#b" />
<use x="9" y="21" xlink:href="#b" />
<use x="10" y="21" xlink:href="#b" />
<use x="11" y="21" xlink:href="#b" />
<use x="17" y="21" xlink:href="#b" />
<use x="20" y="21" xlink:href="#a" />
<use x="24" y="21" xlink:href="#a" />
<use x="26" y="21" xlink:href="#b" />
<use x="27" y="21" xlink:href="#b" />
<use x="28" y="21" xlink:href="#b" />
<use x="0" y="22" xlink:href="#f" />
<use x="1" y="22" xlink:href="#f" />
<use x="2" y="22" xlink:href="#f" />
<use x="3" y="22" xlink:href="#f" />
<use x="4" y="22" xlink:href="#f" />
<use x="5" y="22" xlink:href="#f" />
<use x="6" y="22" xlink:href="#f" />
<use x="8" y="22" xlink:href="#b" />
<use x="9" y="22" xlink:href="#b" />
<use x="12" y="22" xlink:href="#b" />
<use x="14" y="22" xlink:href="#b" />
<use x="17" y="22" xlink:href="#b" />
<use x="18" y="22" xlink:href="#b" />
<use x="19" y="22" xlink:href="#b" />
<use x="20" y="22" xlink:href="#a" />
<use x="22" y="22" xlink:href="#a" />
<use x="24" y="22" xlink:href="#a" />
<use x="25" y="22" xlink:href="#b" />
<use x="27" y="22" xlink:href="#b" />
<use x="28" y="22" xlink:href="#b" />
<use x="0" y="23" xlink:href="#f" />
<use x="6" y="23" xlink:href="#f" />
<use x="8" y="23" xlink:href="#b" />
<use x="9" y="23" xlink:href="#b" />
<use x="10" y="23" xlink:href="#b" />
<use x="11" y="23" xlink:href="#b" />
<use x="12" y="23" xlink:href="#b" />
<use x="13" y="23" xlink:href="#b" />
<use x="14" y="23" xlink:href="#b" />
<use x="16" y="23" xlink:href="#b" />
<use x="17" y="23" xlink:href="#b" />
<use x="20" y="23" xlink:href="#a" />
<use x="24" y="23" xlink:href="#a" />
<use x="25" y="23" xlink:href="#b" />
<use x="0" y="24" xlink:href="#f" />
<use x="2" y="24" xlink:href="#f" />
<use x="3" y="24" xlink:href="#f" />
<use x="4" y="24" xlink:href="#f" />
<use x="6" y="24" xlink:href="#f" />
<use x="8" y="24" xlink:href="#b" />
<use x="13" y="24" xlink:href="#b" />
<use x="15" y="24" xlink:href="#b" />
<use x="16" y="24" xlink:href="#b" />
<use x="17" y="24" xlink:href="#b" />
<use x="18" y="24" xlink:href="#b" />
<use x="20" y="24" xlink:href="#a" />
<use x="21" y="24" xlink:href="#a" />
<use x="22" y="24" xlink:href="#a" />
<use x="23" y="24" xlink:href="#a" />
<use x="24" y="24" xlink:href="#a" />
<use x="27" y="24" xlink:href="#b" />
<use x="0" y="25" xlink:href="#f" />
<use x="2" y="25" xlink:href="#f" />
<use x="3" y="25" xlink:href="#f" />
<use x="4" y="25" xlink:href="#f" />
<use x="6" y="25" xlink:href="#f" />
<use x="12" y="25" xlink:href="#b" />
<use x="13" y="25" xlink:href="#b" />
<use x="16" y="25" xlink:href="#b" />
<use x="23" y="25" xlink:href="#b" />
<use x="24" y="25" xlink:href="#b" />
<use x="26" y="25" xlink:href="#b" />
<use x="27" y="25" xlink:href="#b" />
<use x="28" y="25" xlink:href="#b" />
<use x="0" y="26" xlink:href="#f" />
<use x="2" y="26" xlink:href="#f" />
<use x="3" y="26" xlink:href="#f" />
<use x="4" y="26" xlink:href="#f" />
<use x="6" y="26" xlink:href="#f" />
<use x="8" y="26" xlink:href="#b" />
<use x="12" y="26" xlink:href="#b" />
<use x="13" y="26" xlink:href="#b" />
<use x="17" y="26" xlink:href="#b" />
<use x="19" y="26" xlink:href="#b" />
<use x="20" y="26" xlink:href="#b" />
<use x="21" y="26" xlink:href="#b" />
<use x="23" y="26" xlink:href="#b" />
<use x="24" y="26" xlink:href="#b" />
<use x="25" y="26" xlink:href="#b" />
<use x="28" y="26" xlink:href="#b" />
<use x="0" y="27" xlink:href="#f" />
<use x="6" y="27" xlink:href="#f" />
<use x="8" y="27" xlink:href="#b" />
<use x="11" y="27" xlink:href="#b" />
<use x="13" y="27" xlink:href="#b" />
<use x="14" y="27" xlink:href="#b" />
<use x="15" y="27" xlink:href="#b" />
<use x="17" y="27" xlink:href="#b" />
<use x="20" y="27" xlink:href="#b" />
<use x="21" y="27" xlink:href="#b" />
<use x="24" y="27" xlink:href="#b" />
<use x="27" y="27" xlink:href="#b" />
<use x="0" y="28" xlink:href="#f" />
<use x="1" y="28" xlink:href="#f" />
<use x="2" y="28" xlink:href="#f" />
<use x="3" y="28" xlink:href="#f" />
<use x="4" y="28" xlink:href="#f" />
<use x="5" y="28" xlink:href="#f" />
<use x="6" y="28" xlink:href="#f" />
<use x="8" y="28" xlink:href="#b" />
<use x="10" y="28" xlink:href="#b" />
<use x="11" y="28" xlink:href="#b" />
<use x="12" y="28" xlink:href="#b" />
<use x="13" y="28" xlink:href="#b" />
<use x="15" y="28" xlink:href="#b" />
<use x="16" y="28" xlink:href="#b" />
<use x="17" y="28" xlink:href="#b" />
<use x="19" y="28" xlink:href="#b" />
<use x="20" y="28" xlink:href="#b" />
<use x="21" y="28" xlink:href="#b" />
<use x="24" y="28" xlink:href="#b" />
<use x="25" y="28" xlink:href="#b" />
<use x="27" y="28" xlink:href="#b" />
<use x="28" y="28" xlink:href="#b" />
<use x="3" y="3" xlink:href="#fc" />
<use x="25" y="3" xlink:href="#fc" />
<use x="22" y="22" xlink:href="#ac" />
<use x="3" y="25" xlink:href="#fc" />
</svg>
